<svg xmlns="http://www.w3.org/2000/svg" xmlns:xlink="http://www.w3.org/1999/xlink" viewBox="0 0 591.97 82.64"><defs><style>.cls-1{fill:url(#linear-gradient);}.cls-2{fill:#f15b25;}</style><linearGradient id="linear-gradient" x1="254.64" y1="41.32" x2="604.45" y2="41.32" gradientUnits="userSpaceOnUse"><stop offset="0" stop-color="#1a808d"/><stop offset="1"/></linearGradient></defs><g id="Layer_2" data-name="Layer 2"><g id="Layer_1-2" data-name="Layer 1"><path class="cls-1" d="M32.59,53.64c0-17.53,12.08-29.31,24.45-29.31a20.54,20.54,0,0,1,17.53,9.31l1.78-7.82H92V81.16H76.35l-1.78-7.82A20.53,20.53,0,0,1,57,82.64C44.67,82.64,32.59,70.86,32.59,53.64Zm41.28-.1c0-7.43-4.75-12.77-11.18-12.77C56,40.77,51.2,46.41,51.2,53.54S56,66.21,62.69,66.21C69.12,66.21,73.87,60.86,73.87,53.54ZM103.85,0h18.41V81.16H103.85ZM187.1,58.49H150.77c2.47,6.63,9,9.9,16.53,9.9,6,0,11.59-2.08,16.64-4.85V78.09a39.5,39.5,0,0,1-19.11,4.55c-20.3,0-31.68-12.27-31.68-29,0-17.43,12.27-29.31,28.21-29.31,14.46,0,26.24,9.8,26.24,28.22A35.8,35.8,0,0,1,187.1,58.49Zm-16.93-10.6c-.19-5.54-3.66-9.3-8.91-9.3-5,0-9.4,3.56-10.89,9.3Zm61.77,5,19,28.32h-20.8l-9.3-15.94h-.2l-9.31,15.94h-19.8l18.72-27.62L191.74,25.82h20.1l9.21,15.93h.19l9.21-15.93h19.8ZM264.26,41h-7.43V25.82h7.53V21.26C264.36,11,271.88.57,287.13.57a38,38,0,0,1,11.09,1.58V17.5a23.35,23.35,0,0,0-7.63-1.19c-5.34,0-8.21,1.88-8.21,6.24v3.27h14.15V41H282.67v40.2H264.26Zm38,12.48c0-17.43,13.17-29.11,29.7-29.11s29.5,11.68,29.5,29.11S348.6,82.64,332,82.64,302.27,70.76,302.27,53.44Zm40.69,0c0-8.12-5.45-12.67-11-12.67s-11.09,4.55-11.09,12.67S326.33,66.21,332,66.21,343,61.56,343,53.44Zm29-27.62h14.65l1.78,8.11h.2a16.67,16.67,0,0,1,14.85-8.71,13.89,13.89,0,0,1,4.26.5V42.84a20.69,20.69,0,0,0-4.85-.59c-6.44,0-12.48,3.37-12.48,13.46V81.16H371.93Zm62.45,7.52c3.27-5.25,10.1-9,17.13-9,12.77,0,23.86,11.39,23.86,29.21s-11.88,29.1-24.75,29.1a20.84,20.84,0,0,1-17.33-9.3l-1.68,7.82H416V.14h18.41Zm-.2,20.2c0,7.42,4.65,12.67,11.19,12.67s11.38-5.45,11.38-12.57S452,40.77,445.27,40.77C438.83,40.77,434.18,46.11,434.18,53.54Zm103.3,5H501.14c2.48,6.63,9,9.9,16.54,9.9,6,0,11.58-2.08,16.63-4.85V78.09a39.48,39.48,0,0,1-19.11,4.55c-20.29,0-31.68-12.27-31.68-29,0-17.43,12.28-29.31,28.22-29.31,14.45,0,26.23,9.8,26.23,28.22A37,37,0,0,1,537.48,58.49Zm-16.93-10.6c-.2-5.54-3.67-9.3-8.91-9.3-5.05,0-9.41,3.56-10.89,9.3Zm67.66-19.4V43.64a35.12,35.12,0,0,0-17-4.56c-4.26,0-6.63,1.19-6.63,3.27s2.67,3.27,8.51,4.65C582.27,49.18,592,52.45,592,64.23c0,11.29-8.91,18.41-24.65,18.41-8.22,0-15.15-2-19.9-4.85V61.46a31.35,31.35,0,0,0,19.11,6.43c4.85,0,7.62-1.29,7.62-3.56,0-2.58-3.46-3.37-10.4-5.35-8.61-2.37-16.83-6.24-16.83-16.43,0-10.5,8.52-18.22,23.47-18.22C576.92,24.33,583.75,25.91,588.21,28.49Z"/><circle class="cls-2" cx="10.86" cy="34.87" r="10.86" transform="translate(-15.07 9.15) rotate(-27.94)"/><circle class="cls-2" cx="10.86" cy="71.4" r="10.86" transform="translate(-32.19 13.41) rotate(-27.94)"/></g></g></svg>